<?xml version="1.0" encoding="UTF-8" standalone="no"?>
<!DOCTYPE svg PUBLIC "-//W3C//DTD SVG 1.1//EN" "http://www.w3.org/Graphics/SVG/1.1/DTD/svg11.dtd">
<!--Generated by Intaglio, www.PurgatoryDesign.com-->
<svg version="1.1" viewBox="264,484,278,173" width="278" height="173" xmlns="http://www.w3.org/2000/svg" xmlns:xlink="http://www.w3.org/1999/xlink"><path fill="#00000e" stroke="#000" d="M264.816,485 L541,485 L541,656 L264.816,656 Z"/><path fill="#7ff506" fill-rule="evenodd" d="M304.411,574.862 L321.171,584.537 L321.171,615.178 L304.412,624.853 Z"/><path fill="#7ff506" fill-rule="evenodd" d="M338.745,573.862 L355.504,583.537 L355.504,614.178 L338.745,623.853 Z"/><path fill="#7ff506" fill-rule="evenodd" d="M382.039,550.25 L382.039,569.602 L355.504,584.922 L338.745,575.246 Z"/><path fill="#7ff506" fill-rule="evenodd" d="M381.789,550.5 L381.789,569.852 L408.324,585.172 L425.083,575.496 Z"/><path fill="#7ff506" fill-rule="evenodd" d="M425.083,624.103 L408.324,614.428 L408.324,583.787 L425.083,574.112 Z"/><path fill="#7ff506" fill-rule="evenodd" d="M447.039,574.862 L463.798,584.537 L463.798,615.178 L447.039,624.853 Z"/><path fill="#7ff506" fill-rule="evenodd" d="M434.772,551 L434.772,570.352 L461.307,585.672 L478.066,575.996 Z"/><path fill="#7ff506" fill-rule="evenodd" d="M462.376,510.215 L462.376,529.567 L488.911,544.887 L505.671,535.211 Z"/><path fill="#7ff506" fill-rule="evenodd" d="M321.171,585.672 L304.411,575.996 L304.412,545.356 L321.171,535.68 Z"/><path fill="#7ff506" fill-rule="evenodd" d="M488.661,574.612 L505.421,584.287 L505.421,614.928 L488.662,624.603 Z"/><path fill="#7ff506" fill-rule="evenodd" d="M505.421,584.672 L488.661,574.996 L488.662,544.356 L505.421,534.68 Z"/></svg>
